<svg fill="none" height="100" viewBox="0 0 260 100" width="260" xmlns="http://www.w3.org/2000/svg"><path d="m146.69 24.2651 12.058 4.7047-12.058 4.4505v6.3577l20.653-8.2651v-5.0862l-20.653-8.2651z" fill="#a100ff"/><g fill="#000"><path d="m35.9827 45.9159c-5.7727 0-10.006 2.5431-10.3908 7.8837h6.4141v-.1272c.1282-1.7802 1.7959-3.0517 3.5919-2.9246 2.4373 0 3.5918 1.3987 3.5918 3.8147v1.1444h-2.9504c-6.2858 0-11.4171 1.9073-11.4171 7.8836v.2543c0 4.8319 3.5919 6.9936 7.9535 6.9936 2.6939.1271 5.1312-1.1444 6.6706-3.1789v2.7974h6.5424v-16.0216c-.1283-6.1034-4.3616-8.5194-10.006-8.5194zm-1.4111 20.2177c-2.3091 0-3.3353-1.1444-3.3353-2.7974v-.2543c0-2.1616 1.6676-3.0517 5.003-3.0517h2.6939v2.2888c.1283 2.5431-2.0525 3.8146-4.3616 3.8146z"/><path d="m61.3825 65.8793c-3.2071 0-4.8747-2.1616-4.8747-6.9935v-.763c0-4.7047 1.9242-6.9935 4.8747-6.9935 2.309 0 3.5918 1.5259 3.9767 3.8147h6.4141c-.5132-6.2306-5.1313-9.0281-10.5191-9.0281-6.4141 0-11.5454 4.3233-11.5454 12.4613v.2543c0 8.1379 4.8747 12.2069 11.5454 12.2069 6.5423 0 10.2625-3.9419 10.7756-9.2824h-6.1575c-.5131 2.6703-2.1808 4.3233-4.4898 4.3233z"/><path d="m86.3974 65.8793c-3.2071 0-4.8747-2.1616-4.8747-6.9935v-.763c0-4.7047 1.9242-6.9935 4.8747-6.9935 2.309 0 3.5919 1.5259 3.9767 3.8147h6.4141c-.5131-6.2306-5.1313-9.0281-10.5191-9.0281-6.4141 0-11.5454 4.3233-11.5454 12.4613v.2543c0 8.1379 4.8747 12.2069 11.5454 12.2069 6.5423 0 10.2625-3.9419 10.6474-9.2824h-6.0293c-.3848 2.6703-2.1808 4.3233-4.4898 4.3233z"/><path d="m111.669 66.0065c-2.951 0-4.747-1.6531-5.003-5.9763h15.65v-2.7974c0-7.8837-5.003-11.3169-11.032-11.3169-6.542 0-11.5453 4.4505-11.5453 12.4613v.5086c0 8.0107 4.7463 12.0797 11.6733 12.0797 6.286 0 10.135-3.4332 10.776-8.0108h-6.286c-.256 1.9074-2.181 3.3061-4.233 3.0518zm-.385-15.513c2.694 0 4.362 1.5259 4.49 5.0862h-8.98c.513-3.8146 2.437-4.959 4.49-5.0862z"/><path d="m140.532 45.9159c-3.079-.1271-5.901 1.3988-7.312 4.069v-3.5603h-6.67v23.9051h6.67v-14.6228c0-.2543 0-.3815 0-.6358.128-2.1616 2.053-3.9418 4.233-3.8146 2.438 0 3.592 1.2715 3.592 4.0689v15.0043h6.799v-16.0215c0-5.8491-2.95-8.3923-7.312-8.3923z"/><path d="m160.416 62.7004v-11.3168h4.618v-4.959h-4.618v-7.2479l-6.671 2.7974v4.4505h-2.95v4.959h2.822v12.0798c0 4.8319 2.437 7.2478 7.697 7.2478 1.283 0 2.565-.1272 3.848-.5086v-5.2134c-.769.2543-1.539.3815-2.309.3815-1.539 0-2.437-.8901-2.437-2.6703z"/><path d="m183.635 61.3017v.6358c-.128 2.1616-2.053 3.9418-4.233 3.8147-2.438 0-3.464-1.2716-3.464-4.069v-15.2586h-6.799v16.1487c0 5.5948 3.207 8.2651 7.569 8.2651 2.95.1271 5.644-1.3987 7.055-4.069v3.5603h6.799v-23.9051h-6.799z"/><path d="m202.107 50.7478v-4.4504h-6.67v23.9052h6.67v-12.3341c0-3.9418 2.694-5.3405 7.312-5.3405v-6.6121c-3.335 0-6.285 1.9074-7.312 4.8319z"/><path d="m234.05 57.1056c0-7.8836-5.003-11.1897-11.033-11.1897-6.542 0-11.545 4.4505-11.545 12.4613v.5086c0 8.0107 4.746 12.0797 11.674 12.0797 6.285 0 10.006-3.4332 10.775-8.0108h-6.286c-.513 2.0345-2.437 3.3061-4.489 3.1789-2.951 0-4.747-1.653-5.003-5.9763h15.65v-3.0517zm-15.651-1.5259c.513-3.9418 2.437-5.0862 4.618-5.0862 2.694 0 4.362 1.5259 4.49 5.0862z"/></g></svg>