<svg width="134" height="54" viewBox="0 0 134 54" fill="none" xmlns="http://www.w3.org/2000/svg">
<path d="M0 50.2402H26.054V53.9869H0V50.2402Z" fill="#1F70C1"/>
<path d="M0 43.0532H26.054V46.8131H0V43.0532Z" fill="#1F70C1"/>
<path d="M7.43262 35.8799H18.6081V39.6399H7.43262V35.8799Z" fill="#1F70C1"/>
<path d="M7.43262 28.7065H18.6081V32.4665H7.43262V28.7065Z" fill="#1F70C1"/>
<path d="M7.43262 21.5332H18.6081V25.2932H7.43262V21.5332Z" fill="#1F70C1"/>
<path d="M7.43262 14.3467H18.6081V18.1067H7.43262V14.3467Z" fill="#1F70C1"/>
<path d="M26.054 7.17334H0V10.9333H26.054V7.17334Z" fill="#1F70C1"/>
<path d="M26.054 0H0V3.76H26.054V0Z" fill="#1F70C1"/>
<path d="M29.7703 46.8132H69.84C70.517 45.6532 71.021 44.3865 71.327 43.0532H29.7703V46.8132Z" fill="#1F70C1"/>
<path d="M66.721 28.7065H37.216V32.4665H69.84C68.991 31.0264 67.942 29.7598 66.721 28.7065Z" fill="#1F70C1"/>
<path d="M37.216 21.5332V25.2932H66.721C67.969 24.2399 69.017 22.9731 69.84 21.5332H37.216Z" fill="#1F70C1"/>
<path d="M69.84 7.17334H29.7703V10.9333H71.327C70.982 9.60004 70.477 8.33344 69.84 7.17334Z" fill="#1F70C1"/>
<path d="M57.523 0H29.7703V3.76H67.093C64.598 1.44 61.213 0 57.523 0Z" fill="#1F70C1"/>
<path d="M48.379 14.3467H37.216V18.1067H48.379V14.3467Z" fill="#1F70C1"/>
<path d="M59.554 18.1067H71.234C71.566 16.9068 71.738 15.6401 71.738 14.3467H59.554V18.1067Z" fill="#1F70C1"/>
<path d="M37.216 35.8799H48.379V39.6399H37.216V35.8799Z" fill="#1F70C1"/>
<path d="M59.554 35.8799V39.6399H71.738C71.738 38.3465 71.566 37.0799 71.234 35.8799H59.554Z" fill="#1F70C1"/>
<path d="M29.7703 53.9602L57.523 54.0002C61.24 54.0002 64.598 52.5603 67.106 50.2402H29.7703V53.9602Z" fill="#1F70C1"/>
<path d="M74.446 50.2402H93.054V53.9869H74.446V50.2402Z" fill="#1F70C1"/>
<path d="M74.446 43.0532H93.054V46.8131H74.446V43.0532Z" fill="#1F70C1"/>
<path d="M81.879 35.8799H93.054V39.6399H81.879V35.8799Z" fill="#1F70C1"/>
<path d="M81.879 28.7065H93.054V32.4665H81.879V28.7065Z" fill="#1F70C1"/>
<path d="M98.231 7.17334H74.446V10.9333H99.518L98.231 7.17334Z" fill="#1F70C1"/>
<path d="M95.762 0H74.446V3.76H97.049L95.762 0Z" fill="#1F70C1"/>
<path d="M115.379 50.2402H134V53.9869H115.379V50.2402Z" fill="#1F70C1"/>
<path d="M115.379 43.0532H134V46.8131H115.379V43.0532Z" fill="#1F70C1"/>
<path d="M115.379 35.8799H126.554V39.6399H115.379V35.8799Z" fill="#1F70C1"/>
<path d="M115.379 28.7065H126.554V32.4665H115.379V28.7065Z" fill="#1F70C1"/>
<path d="M115.379 25.2932H126.554V21.5332H115.379H105.265L104.216 24.5733L103.168 21.5332H93.054H81.879V25.2932H93.054V21.8398L94.235 25.2932H114.197L115.379 21.8398V25.2932Z" fill="#1F70C1"/>
<path d="M126.554 14.3467H107.734L106.446 18.1067H126.554V14.3467Z" fill="#1F70C1"/>
<path d="M112.684 0L111.397 3.76H134V0H112.684Z" fill="#1F70C1"/>
<path d="M104.216 53.9602L105.504 50.2402H102.929L104.216 53.9602Z" fill="#1F70C1"/>
<path d="M101.748 46.8131H106.685L108.012 43.0532H100.434L101.748 46.8131Z" fill="#1F70C1"/>
<path d="M99.239 39.6399H109.194L110.508 35.8799H97.925L99.239 39.6399Z" fill="#1F70C1"/>
<path d="M96.744 32.4665H111.702L112.976 28.7065H95.457L96.744 32.4665Z" fill="#1F70C1"/>
<path d="M81.879 18.1067H101.987L100.699 14.3467H81.879V18.1067Z" fill="#1F70C1"/>
<path d="M108.928 10.9333H134V7.17334H110.202L108.928 10.9333Z" fill="#1F70C1"/>
</svg>
