<?xml version="1.0" standalone="no"?>
<!DOCTYPE svg PUBLIC "-//W3C//DTD SVG 20010904//EN"
 "http://www.w3.org/TR/2001/REC-SVG-20010904/DTD/svg10.dtd">
<svg version="1.0" xmlns="http://www.w3.org/2000/svg"
 width="1080.000000pt" height="1080.000000pt" viewBox="0 0 1080.000000 1080.000000"
 preserveAspectRatio="xMidYMid meet">

<g transform="translate(0.000000,1080.000000) scale(0.100000,-0.100000)"
fill="#000000" stroke="none">
<path d="M1983 6375 c-17 -7 -36 -22 -42 -34 -15 -28 -15 -1854 0 -1883 25
-46 46 -48 574 -48 528 0 549 2 574 48 15 28 15 406 0 434 -23 43 -62 48 -348
48 l-270 0 -3 688 c-3 771 1 730 -75 751 -58 16 -371 13 -410 -4z"/>
<path d="M5473 6380 c-55 -23 -53 8 -53 -980 0 -1016 -4 -959 68 -980 23 -8
101 -11 211 -8 l173 3 24 28 c23 27 24 35 24 163 0 74 3 134 8 134 4 0 45 -60
91 -134 89 -144 110 -168 154 -185 36 -14 416 -15 451 -1 59 22 52 38 -158
374 -107 172 -198 320 -201 328 -3 8 71 136 181 309 223 352 218 343 204 369
-19 36 -44 40 -252 40 -191 0 -206 -1 -248 -22 -30 -15 -55 -39 -75 -70 -16
-26 -57 -89 -90 -140 l-60 -93 -5 412 -5 412 -23 23 c-22 22 -30 23 -210 25
-103 1 -197 -2 -209 -7z"/>
<path d="M6854 6383 c-12 -2 -32 -15 -45 -29 l-24 -26 -3 -621 c-2 -342 0
-637 3 -656 4 -18 17 -44 30 -57 24 -24 26 -24 234 -24 207 0 210 0 238 24
l28 24 3 644 c2 481 -1 650 -10 672 -20 48 -56 56 -255 55 -98 -1 -188 -4
-199 -6z"/>
<path d="M7513 6380 c-12 -5 -30 -21 -40 -37 -16 -24 -18 -51 -18 -213 0 -102
4 -198 8 -213 13 -48 53 -57 252 -57 l175 0 0 -411 c0 -420 1 -437 39 -466 21
-16 423 -18 453 -2 45 24 48 53 48 478 l0 400 196 3 196 3 24 28 c24 28 24 32
24 222 0 106 -4 205 -10 220 -21 55 -24 55 -702 54 -343 0 -633 -4 -645 -9z"/>
<path d="M3400 6365 c-267 -86 -206 -486 74 -485 78 1 130 24 182 83 45 51 64
102 64 171 0 158 -169 280 -320 231z"/>
<path d="M4423 5840 c-40 -10 -81 -23 -91 -29 -14 -7 -21 -5 -30 10 -11 17
-25 19 -152 19 -150 0 -199 -11 -219 -48 -8 -14 -11 -225 -11 -672 l0 -651 24
-24 c33 -33 66 -37 259 -33 158 3 168 4 189 26 23 23 23 23 28 425 5 370 6
404 24 429 47 71 148 91 207 41 58 -49 59 -56 59 -468 0 -415 1 -423 61 -444
45 -16 357 -14 389 2 14 7 33 28 43 47 17 32 18 66 14 455 -5 452 -8 490 -61
609 -73 165 -200 260 -416 311 -89 20 -228 18 -317 -5z"/>
<path d="M3285 5831 c-11 -5 -29 -19 -40 -31 -20 -22 -20 -36 -20 -670 0 -717
-2 -691 64 -711 22 -6 106 -9 208 -7 l173 3 27 28 28 27 0 655 0 655 -28 27
-27 28 -183 2 c-100 1 -191 -1 -202 -6z"/>
</g>
</svg>
