<?xml version="1.0" standalone="no"?>
<!DOCTYPE svg PUBLIC "-//W3C//DTD SVG 20010904//EN"
 "http://www.w3.org/TR/2001/REC-SVG-20010904/DTD/svg10.dtd">
<svg version="1.0" xmlns="http://www.w3.org/2000/svg"
 width="368.000000pt" height="146.000000pt" viewBox="0 0 368.000000 146.000000"
 preserveAspectRatio="xMidYMid meet">

<g transform="translate(0.000000,146.000000) scale(0.100000,-0.100000)"
fill="#000000" stroke="none">
<path d="M730 1083 c-154 -27 -283 -85 -361 -164 -65 -64 -82 -101 -87 -190
-7 -114 14 -167 97 -249 124 -123 264 -166 505 -157 200 7 321 51 421 151 78
78 100 131 100 241 0 80 -3 95 -27 137 -61 103 -194 184 -359 218 -87 18 -224
24 -289 13z m288 -32 c89 -19 222 -75 226 -96 2 -13 -70 -33 -121 -34 -24 -1
-84 13 -135 30 -104 34 -162 34 -228 -1 -44 -24 -105 -40 -150 -40 -44 0 -152
32 -157 46 -4 11 100 62 167 83 106 33 270 38 398 12z m-20 -127 c74 -28 158
-31 226 -8 59 20 79 12 125 -55 51 -76 45 -85 -87 -130 l-114 -39 -86 72
c-180 149 -188 151 -281 86 -95 -66 -143 -48 -70 27 51 52 71 64 119 74 46 9
91 1 168 -27z m-488 -16 c42 -12 85 -18 123 -15 31 2 57 1 57 -2 0 -3 -12 -18
-27 -33 -24 -25 -25 -30 -12 -43 33 -33 71 -29 134 14 92 63 94 62 264 -79 76
-63 101 -90 99 -105 -5 -35 -43 -30 -95 12 l-48 38 38 -44 c44 -52 47 -78 12
-87 -19 -5 -33 1 -60 25 -47 41 -53 39 -17 -6 16 -21 27 -44 25 -50 -7 -20
-48 -15 -68 7 -25 27 -40 25 -21 -2 22 -32 20 -38 -14 -38 -26 0 -30 4 -30 27
0 28 -35 73 -57 73 -7 0 -13 6 -13 14 0 22 -29 46 -54 46 -13 0 -29 7 -36 15
-7 9 -30 15 -54 15 -91 1 -133 7 -181 27 -27 11 -76 26 -107 33 -46 10 -58 17
-58 32 0 48 91 164 119 152 9 -4 45 -15 81 -26z m-129 -183 c106 -28 145 -49
152 -84 5 -21 15 -35 34 -43 16 -7 32 -18 36 -25 9 -14 103 -63 121 -63 8 0
26 -10 41 -21 22 -18 32 -20 58 -12 18 5 43 6 57 3 31 -8 103 13 137 40 14 11
32 20 39 20 7 0 24 12 37 26 13 14 35 31 48 38 15 7 25 22 27 38 4 36 13 42
110 72 115 36 116 36 108 -21 -13 -93 -84 -176 -206 -238 -105 -53 -186 -69
-340 -69 -148 0 -241 19 -342 70 -106 54 -198 170 -198 252 0 37 2 37 81 17z
m234 -54 c3 -5 20 -7 39 -4 25 4 37 1 47 -13 8 -11 26 -19 44 -19 25 0 30 -4
33 -27 3 -21 9 -28 26 -28 28 0 46 -18 46 -45 0 -45 -47 -60 -77 -25 -10 11
-27 20 -39 20 -12 0 -27 7 -34 15 -7 8 -23 15 -36 15 -14 0 -30 10 -40 24 -8
14 -25 26 -37 28 -38 5 -35 68 2 68 11 0 22 -4 26 -9z"/>
<path d="M3068 1059 c-10 -5 -21 -28 -24 -49 -6 -34 -9 -38 -25 -30 -35 19
-79 11 -110 -19 -25 -26 -29 -37 -29 -86 0 -65 20 -110 52 -119 42 -11 113 -6
135 9 12 8 26 30 32 48 12 41 9 249 -4 253 -5 2 -18 -1 -27 -7z m-40 -131 c38
-49 14 -138 -38 -138 -34 0 -52 26 -52 75 0 49 18 75 51 75 16 0 33 -6 39 -12z"/>
<path d="M1624 967 c-28 -24 -29 -30 -32 -121 l-4 -96 26 0 c26 0 26 1 26 79
0 84 12 111 50 111 34 0 50 -39 50 -117 0 -66 2 -73 20 -73 18 0 20 7 20 73 0
81 16 117 54 117 38 0 46 -19 46 -107 0 -83 0 -83 26 -83 l26 0 -4 96 c-3 91
-4 97 -32 121 -25 21 -36 24 -70 18 -23 -3 -52 -6 -66 -6 -14 0 -43 3 -66 6
-34 6 -45 3 -70 -18z"/>
<path d="M2025 978 c-40 -22 -55 -51 -55 -111 0 -51 4 -62 29 -88 25 -25 37
-29 84 -29 40 0 61 6 81 21 37 29 33 42 -9 35 -19 -3 -50 -9 -69 -12 -27 -5
-36 -2 -49 17 -9 12 -14 26 -11 31 3 4 41 8 84 8 43 0 82 4 85 10 3 5 1 28 -5
50 -18 66 -104 102 -165 68z m78 -39 c53 -28 43 -49 -24 -49 -55 0 -66 17 -27
44 27 19 24 19 51 5z"/>
<path d="M2294 974 c-45 -22 -58 -54 -59 -142 0 -77 0 -77 28 -80 l27 -3 0 74
c0 77 15 107 53 107 12 0 17 9 17 30 0 35 -17 38 -66 14z"/>
<path d="M2445 976 c-37 -16 -55 -52 -55 -112 0 -55 21 -99 52 -108 79 -21
166 11 168 62 0 20 -54 14 -68 -8 -16 -27 -57 -26 -76 2 -18 26 -21 80 -6 109
14 25 62 25 85 -1 21 -23 65 -27 65 -6 0 63 -88 96 -165 62z"/>
<path d="M2675 965 c-33 -32 -31 -45 5 -45 17 0 30 4 30 9 0 14 37 23 60 16
11 -3 20 -15 20 -25 0 -20 -7 -23 -82 -35 -61 -10 -86 -65 -52 -114 15 -21 22
-23 85 -19 92 5 103 16 107 113 4 68 2 76 -21 99 -37 37 -117 37 -152 1z m115
-130 c0 -32 -44 -63 -69 -48 -41 26 -13 71 47 72 17 1 22 -5 22 -24z"/>
<path d="M3177 970 c-50 -39 -59 -135 -18 -189 14 -18 31 -25 69 -29 28 -2 63
-2 77 2 37 9 65 61 65 120 0 41 -5 53 -34 82 -30 30 -41 34 -84 34 -34 0 -57
-6 -75 -20z m121 -48 c17 -22 15 -83 -4 -110 -35 -51 -104 -14 -104 56 0 66
70 102 108 54z"/>
<path d="M1607 687 c-16 -11 -17 -30 -15 -157 3 -137 4 -145 23 -145 19 0 20
8 23 158 1 86 -1 157 -6 157 -4 0 -16 -6 -25 -13z"/>
<path d="M1700 670 c0 -25 4 -30 25 -30 21 0 25 5 25 30 0 25 -4 30 -25 30
-21 0 -25 -5 -25 -30z"/>
<path d="M1826 687 c-16 -12 -17 -27 -14 -136 3 -120 4 -123 31 -147 33 -28
101 -33 147 -9 36 19 54 71 45 130 -11 77 -75 112 -147 81 -14 -7 -17 0 -20
40 -3 51 -14 62 -42 41z m136 -134 c25 -23 24 -87 -2 -113 -27 -27 -55 -25
-79 6 -25 32 -26 55 -6 94 18 35 57 40 87 13z"/>
<path d="M1700 501 l0 -121 25 0 26 0 -3 118 c-3 113 -4 117 -25 120 -23 3
-23 2 -23 -117z"/>
<path d="M2125 608 c-45 -24 -55 -49 -55 -140 0 -87 0 -88 25 -88 24 0 25 2
25 71 0 84 9 104 50 112 24 5 30 12 30 32 0 21 -5 25 -27 25 -16 0 -37 -6 -48
-12z"/>
<path d="M2255 598 c-22 -19 -30 -37 -35 -77 -12 -91 29 -141 116 -141 40 0
94 29 94 51 0 13 -47 11 -70 -3 -23 -15 -68 -2 -84 25 -18 28 10 38 91 32 39
-3 74 -2 77 3 9 15 -16 90 -35 108 -11 10 -41 19 -72 22 -46 4 -57 1 -82 -20z
m99 -28 c16 -6 26 -17 26 -30 0 -17 -6 -20 -49 -20 -58 0 -70 11 -41 40 23 23
29 24 64 10z"/>
<path d="M2563 584 c-26 -11 -12 -23 21 -17 53 8 56 -21 6 -67 -22 -20 -40
-40 -40 -43 0 -4 23 -7 51 -7 31 0 48 4 44 10 -4 6 -11 8 -16 5 -24 -15 -26 9
-3 42 21 32 23 39 11 57 -14 21 -50 30 -74 20z"/>
<path d="M2680 550 c0 -39 0 -39 38 -37 33 2 37 0 37 -23 0 -23 -3 -25 -39
-23 -28 2 -37 0 -29 -8 6 -6 28 -9 49 -7 35 3 39 6 42 32 4 35 -8 49 -45 50
-41 1 -37 30 5 34 48 5 39 22 -13 22 l-45 0 0 -40z"/>
<path d="M2880 539 c-12 -8 -12 -10 5 -8 42 3 45 0 42 -41 -2 -28 1 -40 10
-40 17 0 18 71 1 88 -15 15 -38 15 -58 1z"/>
<path d="M3018 543 c-24 -4 -28 -9 -28 -39 0 -19 0 -37 -1 -41 0 -4 4 -9 10
-11 5 -2 11 14 13 35 5 65 57 56 58 -9 0 -16 5 -28 10 -28 16 0 12 67 -6 84
-8 9 -18 15 -22 15 -4 -1 -19 -4 -34 -6z"/>
<path d="M3131 531 c-24 -24 -26 -40 -8 -65 18 -24 75 -18 94 10 12 18 11 24
-4 42 -28 32 -59 36 -82 13z m64 -36 c0 -25 -4 -30 -24 -30 -32 0 -49 28 -31
50 7 9 23 15 34 13 16 -2 21 -10 21 -33z"/>
<path d="M3250 535 c-15 -19 1 -42 32 -47 12 -2 24 -9 26 -17 4 -11 -3 -13
-33 -8 -27 4 -35 3 -28 -4 6 -6 26 -9 44 -7 47 4 52 34 9 49 -34 12 -35 35 -1
32 13 -2 20 1 16 7 -9 15 -51 12 -65 -5z"/>
<path d="M2864 485 c-8 -19 3 -35 24 -35 15 0 15 2 2 10 -13 9 -12 12 4 25 19
15 19 15 -2 15 -13 0 -25 -7 -28 -15z"/>
</g>
</svg>
