<svg height="257.89032" viewBox="0 0 338.66667 68.23348" width="1280" xmlns="http://www.w3.org/2000/svg" xmlns:xlink="http://www.w3.org/1999/xlink"><linearGradient id="a" gradientUnits="userSpaceOnUse" x1="-1723.144604" x2="-1442.452676" y1="3177.294812" y2="3191.471172"><stop offset="0" stop-color="#0064e1"/><stop offset=".4" stop-color="#0064e1"/><stop offset=".83" stop-color="#0073ee"/><stop offset="1" stop-color="#0082fb"/></linearGradient><linearGradient id="b" gradientUnits="userSpaceOnUse" x1="-1745.82678" x2="-1745.82678" y1="3208.482804" y2="3104.995376"><stop offset="0" stop-color="#0082fb"/><stop offset="1" stop-color="#0064e0"/></linearGradient><g transform="matrix(.25199933 0 0 .25199933 456.0231 -758.8787)"><g fill="#1c2b33" stroke-width=".270831"><path d="m-1316.3681 3019.9939h50.9367l86.6109 156.6726 86.6098-156.6725h49.8342v257.4422h-41.5583v-197.3101l-75.9453 136.6284h-38.9845l-75.9454-136.6284v197.3101h-41.5581z"/><path d="m-908.32661 3282.0345q-28.87192 0-50.75246-12.7803-21.88467-12.7802-34.11116-35.3982-12.23077-22.6192-12.22847-51.8562 0-29.6046 11.95251-52.4082 11.95245-22.7988 33.19189-35.6754 21.23998-12.8684 48.82203-12.8718 27.39767 0 47.16756 12.9634 19.76396 12.967 30.43243 36.3189 10.66317 23.3553 10.66552 54.7989v11.3992h-141.0413q3.86259 23.5421 19.03306 37.0539 15.17044 13.5166 38.33968 13.5154 18.57159 0 31.99655-5.5166 13.42141-5.5164 25.19305-16.7327l22.06607 27.0308q-32.91946 30.1613-80.72696 30.1589zm30.34204-152.72q-13.0586-13.3298-34.20289-13.3323-20.59717 0-34.47885 13.6093-13.8864 13.6081-17.56175 36.5936h101.13855q-1.84057-23.5385-14.89506-36.8706z"/><path d="m-772.79726 3119.6623h-38.24931v-34.0197h38.24931v-56.2689h40.08695v56.2689h58.10782v34.0197h-58.10782v86.2424q0 21.513 7.35536 30.7083 7.35184 9.1978 25.19306 9.1942 7.90311 0 13.42376-.6434 5.5165-.6411 12.13564-1.7472v33.6509a113.5961 113.5961 0 0 1 -15.35419 3.3113 120.83996 120.83996 0 0 1 -17.92929 1.287q-64.91424 0-64.91129-70.9797z"/><path d="m-465.70147 3277.4362h-39.35197v-26.8474q-10.48173 15.0806-26.66317 23.2614-16.18322 8.1797-36.77799 8.1845-25.37562 0-44.95998-12.9658-19.58437-12.9635-30.80119-35.673-11.21795-22.7108-11.21739-51.9479 0-29.4214 11.40175-52.0417 11.39928-22.6157 31.53625-35.4899 20.13563-12.8684 46.24694-12.8718 19.67587 0 35.30667 7.6324a69.802339 69.802339 0 0 1 25.92811 21.6058v-24.64h39.35197zm-40.08694-124.6747q-6.43944-16.3664-20.32003-25.8377-13.8864-9.469-32.08806-9.469-25.74725 0-41.00636 17.2846-15.26555 17.2858-15.2626 46.7084 0 29.6082 14.7107 46.8917 14.70897 17.2858 39.90379 17.2847 18.5698 0 33.09912-9.563 14.524-9.5572 20.96349-25.7439z"/></g><path d="m-1765.5886 3189.9968c0 15.5657 3.4165 27.5163 7.882 34.7463 5.8549 9.4698 14.5875 13.4817 23.4903 13.4817 11.4828 0 21.9875-2.8494 42.2313-30.8478 16.2178-22.4411 35.3275-53.941 48.1855-73.6887l21.7749-33.4562c15.1261-23.235 32.634-49.0644 52.7077-66.5722 16.3879-14.2897 34.0658-22.2285 51.8571-22.2285 29.8696 0 58.3215 17.3093 80.0964 49.7732 23.8305 35.5543 35.3984 80.3374 35.3984 126.5524 0 27.4738-5.4154 47.6609-14.63 63.6093-8.9027 15.4239-26.2546 30.8336-55.4437 30.8336v-43.9751c24.9929 0 31.2305-22.9657 31.2305-49.2487 0-37.4539-8.7327-79.019-27.97-108.7185-13.6518-21.066-31.3439-33.9382-50.8081-33.9382-21.0518 0-37.9926 15.8775-57.0314 44.1877-10.122 15.0412-20.5132 33.3712-32.1804 54.0545l-12.8438 22.7531c-25.8009 45.7471-32.3362 56.1667-45.2367 73.3626-22.6113 30.1106-41.9195 41.5226-67.3377 41.5226-30.1532 0-49.2204-13.0565-61.0293-32.7332-9.6399-16.0335-14.3748-37.0712-14.3748-61.0434z" fill="#0081fb" stroke-width="1.41764"/><path d="m-1774.9025 3064.3092c20.1871-31.1171 49.3196-52.8778 82.7332-52.8778 19.3508 0 38.5881 5.7272 58.676 22.1293 21.9734 17.9331 45.3927 47.4625 74.6102 96.1299l10.4763 17.4653c25.2906 42.1321 39.6796 63.8078 48.1004 74.0289 10.8307 13.1273 18.4151 17.04 28.2677 17.04 24.9929 0 31.2305-22.9657 31.2305-49.2487l38.8432-1.2191c0 27.4738-5.4154 47.6609-14.63 63.6093-8.9027 15.4239-26.2546 30.8336-55.4437 30.8336-18.1458 0-34.2218-3.9411-51.9989-20.7117-13.666-12.8721-29.6428-35.7386-41.9337-56.2943l-36.5608-61.0718c-18.3442-30.6493-35.1716-53.5016-44.9107-63.8503-10.4764-11.1284-23.9439-24.5676-45.4353-24.5676-17.3944 0-32.1661 12.2058-44.5279 30.8761z" fill="url(#a)" stroke-width="1.41764"/><path d="m-1692.8781 3055.7042c-17.3944 0-32.1661 12.2058-44.5279 30.8761-17.4795 26.3822-28.1826 65.6791-28.1826 103.4165 0 15.5657 3.4165 27.5163 7.882 34.7463l-37.539 24.7236c-9.6399-16.0335-14.3748-37.0712-14.3748-61.0434 0-43.5924 11.9648-89.0276 34.7179-124.1141 20.1871-31.1171 49.3196-52.8778 82.7332-52.8778z" fill="url(#b)" stroke-width="1.41764"/></g></svg>