<?xml version="1.0" standalone="no"?>
<!DOCTYPE svg PUBLIC "-//W3C//DTD SVG 20010904//EN"
 "http://www.w3.org/TR/2001/REC-SVG-20010904/DTD/svg10.dtd">
<svg version="1.0" xmlns="http://www.w3.org/2000/svg"
 width="402.000000pt" height="158.000000pt" viewBox="0 0 402.000000 158.000000"
 preserveAspectRatio="xMidYMid meet">

<g transform="translate(0.000000,158.000000) scale(0.100000,-0.100000)"
fill="#000000" stroke="none">
<path d="M1202 1204 c-16 -11 -22 -25 -22 -54 0 -64 49 -91 90 -50 53 53 -8
147 -68 104z"/>
<path d="M1430 1200 c-19 -19 -20 -33 -20 -340 0 -307 1 -321 20 -340 26 -26
54 -25 79 1 19 20 20 20 52 3 56 -30 152 -25 216 10 139 77 174 266 71 390
-62 75 -187 108 -275 71 -19 -8 -39 -15 -44 -15 -5 0 -9 47 -9 104 0 97 -2
106 -22 120 -30 21 -44 20 -68 -4z m305 -324 c56 -37 77 -142 39 -193 -68 -90
-160 -90 -228 0 -25 34 -26 104 0 148 38 65 126 86 189 45z"/>
<path d="M3020 1200 c-19 -19 -20 -33 -20 -333 0 -351 1 -357 65 -357 24 0 38
6 45 19 6 13 10 137 10 335 0 303 -1 317 -20 336 -11 11 -29 20 -40 20 -11 0
-29 -9 -40 -20z"/>
<path d="M3393 1011 c-48 -12 -115 -55 -141 -90 -78 -106 -65 -258 29 -348 48
-45 97 -63 176 -63 108 1 188 47 181 107 -4 37 -43 42 -102 14 -52 -26 -89
-26 -143 -2 -35 16 -73 61 -73 86 0 3 72 5 159 5 88 0 171 4 185 10 23 8 26
15 26 55 0 83 -52 165 -130 205 -42 21 -123 31 -167 21z m105 -107 c42 -17 92
-61 92 -81 0 -10 -31 -13 -140 -13 -128 0 -139 1 -133 18 15 43 81 91 126 92
10 0 34 -7 55 -16z"/>
<path d="M348 999 c-16 -9 -18 -32 -18 -244 0 -221 1 -235 19 -245 31 -16 59
-12 75 12 13 18 16 52 16 161 0 151 9 184 55 205 48 22 93 11 127 -32 15 -18
18 -44 18 -168 0 -134 2 -150 20 -168 22 -22 42 -25 71 -10 17 10 19 23 19
151 0 158 11 198 59 223 47 25 79 20 117 -18 l34 -34 0 -144 c0 -157 9 -188
55 -188 50 0 55 18 55 188 0 178 -10 214 -73 269 -70 62 -180 70 -256 20 l-40
-27 -56 30 c-64 34 -124 39 -180 16 -29 -13 -35 -13 -46 0 -13 16 -46 18 -71
3z"/>
<path d="M1198 999 c-16 -9 -18 -31 -18 -239 0 -194 2 -231 16 -244 21 -21 57
-20 77 2 15 16 17 48 17 239 0 200 -2 221 -18 236 -21 19 -49 21 -74 6z"/>
<path d="M1984 984 c-15 -22 -16 -44 -11 -174 4 -81 12 -161 18 -177 13 -35
64 -90 104 -111 45 -23 141 -21 190 5 98 52 115 96 115 301 0 170 -3 182 -51
182 -53 0 -59 -17 -59 -180 0 -145 -1 -149 -26 -179 -32 -39 -80 -49 -124 -26
-50 26 -60 64 -60 223 0 94 -4 142 -12 150 -21 21 -66 14 -84 -14z"/>
<path d="M2612 984 c-185 -92 -187 -356 -3 -448 87 -44 189 -40 263 9 32 21
38 31 38 60 0 29 -5 37 -27 46 -23 9 -35 7 -71 -13 -101 -55 -215 -1 -228 108
-15 117 115 191 232 132 37 -18 48 -19 69 -10 22 10 26 18 23 50 -3 34 -8 39
-57 65 -75 37 -165 38 -239 1z"/>
</g>
</svg>
