<?xml version="1.0" standalone="no"?>
<!DOCTYPE svg PUBLIC "-//W3C//DTD SVG 20010904//EN"
 "http://www.w3.org/TR/2001/REC-SVG-20010904/DTD/svg10.dtd">
<svg version="1.0" xmlns="http://www.w3.org/2000/svg"
 width="640.000000pt" height="576.000000pt" viewBox="0 0 640.000000 576.000000"
 preserveAspectRatio="xMidYMid meet">

<g transform="translate(0.000000,576.000000) scale(0.100000,-0.100000)"
fill="#000000" stroke="none">
<path d="M246 5511 l-248 -248 621 -613 c342 -338 621 -617 621 -620 0 -3
-279 -285 -621 -626 l-620 -620 251 -243 250 -243 623 615 623 616 623 -616
622 -616 42 39 c23 21 135 131 250 244 l207 205 -622 622 -622 622 623 618
623 618 -249 248 -249 247 -625 -619 -626 -619 -459 459 c-252 253 -534 532
-625 619 l-165 159 -248 -248z"/>
<path d="M0 830 l0 -810 206 0 206 0 -4 399 -3 399 21 -17 c11 -9 208 -191
438 -406 387 -360 421 -390 457 -393 l39 -3 0 805 0 806 -205 0 -206 0 3 -395
c2 -217 1 -395 -2 -395 -3 0 -203 184 -445 410 -392 365 -444 410 -472 410
l-33 0 0 -810z"/>
<path d="M4477 1629 c-374 -39 -641 -274 -712 -627 -21 -105 -16 -323 10 -422
72 -276 284 -481 568 -550 266 -65 557 -17 776 129 16 10 16 11 -106 199 l-73
112 -42 -30 c-92 -67 -292 -96 -425 -62 -72 19 -165 81 -207 139 -121 165
-119 446 4 602 81 103 190 151 338 151 103 0 168 -16 251 -60 34 -18 63 -31
64 -29 3 3 172 290 184 311 7 13 -160 86 -245 108 -72 18 -249 41 -292 38 -8
0 -50 -4 -93 -9z"/>
<path d="M3089 1204 l-224 -236 -3 -58 -3 -59 63 -3 63 -3 6 -305 c3 -190 10
-318 17 -339 45 -132 151 -180 399 -181 56 0 104 4 107 9 7 11 86 267 86 279
0 5 -37 12 -81 15 -89 7 -124 23 -140 64 -5 14 -8 118 -7 242 l3 216 103 3
102 3 0 129 0 130 -105 0 -105 0 0 165 0 165 -29 0 c-24 0 -61 -35 -252 -236z"/>
<path d="M2068 1130 c-139 -17 -270 -80 -364 -176 -195 -201 -204 -550 -19
-761 60 -68 141 -121 245 -157 77 -27 97 -30 215 -30 151 -1 207 10 321 65
221 105 335 359 279 624 -62 292 -345 473 -677 435z m182 -330 c136 -69 162
-310 46 -426 -61 -61 -140 -79 -214 -48 -82 34 -130 108 -139 213 -10 120 37
224 119 264 47 23 140 22 188 -3z"/>
<path d="M5703 1129 c-193 -23 -370 -144 -452 -311 -57 -116 -73 -245 -46
-372 31 -145 109 -264 222 -338 121 -80 263 -116 417 -105 358 25 572 257 552
597 -9 159 -60 273 -165 373 -132 124 -321 180 -528 156z m188 -329 c80 -41
126 -145 117 -264 -17 -209 -236 -300 -366 -152 -102 116 -71 349 55 415 52
27 141 28 194 1z"/>
</g>
</svg>
