<?xml version="1.0" standalone="no"?>
<!DOCTYPE svg PUBLIC "-//W3C//DTD SVG 20010904//EN"
 "http://www.w3.org/TR/2001/REC-SVG-20010904/DTD/svg10.dtd">
<svg version="1.0" xmlns="http://www.w3.org/2000/svg"
 width="366.000000pt" height="267.000000pt" viewBox="0 0 366.000000 267.000000"
 preserveAspectRatio="xMidYMid meet">

<g transform="translate(0.000000,267.000000) scale(0.100000,-0.100000)"
fill="#000000" stroke="none">
<path d="M1297 2575 c-58 -22 -110 -68 -143 -127 -25 -46 -29 -63 -29 -128 0
-62 5 -84 27 -126 50 -96 131 -143 244 -144 114 0 191 48 247 154 16 31 22 59
22 116 0 65 -4 82 -29 128 -33 59 -88 108 -144 128 -48 17 -147 16 -195 -1z"/>
<path d="M2164 2571 c-183 -83 -223 -321 -76 -453 57 -51 102 -68 184 -68 85
0 147 29 205 94 118 134 68 350 -97 425 -59 27 -159 28 -216 2z"/>
<path d="M863 1927 c-182 -67 -240 -295 -113 -440 63 -72 183 -109 271 -85 23
7 31 0 96 -95 l70 -103 -28 -49 c-103 -179 29 -405 238 -405 50 0 73 6 125 33
136 70 186 230 115 367 l-27 51 66 99 66 99 72 0 c39 0 80 1 90 3 15 2 36 -22
89 -99 l70 -101 -20 -29 c-30 -43 -43 -90 -43 -158 0 -157 133 -276 294 -263
69 6 108 23 161 70 92 80 116 240 51 338 l-24 37 68 103 69 103 75 -2 c90 -3
144 17 201 74 72 73 99 173 70 270 -13 46 -28 69 -73 114 -62 62 -107 81 -189
81 -77 0 -141 -27 -194 -81 -96 -98 -104 -236 -23 -360 16 -25 16 -27 -47
-122 l-64 -96 -35 7 c-44 9 -96 9 -135 0 -29 -6 -32 -3 -98 93 l-68 99 30 62
c91 181 -20 381 -220 396 -109 8 -201 -40 -259 -133 -49 -80 -45 -204 10 -286
l28 -42 -65 -98 c-61 -91 -68 -98 -92 -92 -35 9 -110 9 -143 0 -25 -7 -31 -1
-97 94 l-70 102 30 52 c39 69 46 135 24 211 -13 48 -27 69 -73 114 -36 35 -72
60 -98 68 -51 15 -138 14 -181 -1z"/>
<path d="M1040 265 c0 -220 2 -255 15 -255 10 0 15 10 15 31 l0 31 35 -31 c30
-26 44 -31 88 -31 67 0 108 25 136 82 57 119 -1 263 -113 275 -54 6 -99 -10
-126 -45 l-20 -25 0 112 c0 92 -3 111 -15 111 -13 0 -15 -35 -15 -255z m225
53 c85 -67 67 -245 -29 -276 -105 -34 -181 52 -161 185 10 68 57 113 118 113
30 0 53 -7 72 -22z"/>
<path d="M3630 415 c0 -58 -2 -105 -4 -105 -3 0 -17 11 -32 25 -53 49 -143 45
-198 -10 -85 -84 -59 -262 44 -305 49 -20 126 -8 160 25 l30 29 0 -32 c0 -18
5 -32 10 -32 6 0 10 92 10 255 0 163 -4 255 -10 255 -6 0 -10 -42 -10 -105z
m-58 -95 c38 -30 51 -71 46 -151 -3 -65 -6 -74 -36 -100 -26 -23 -42 -29 -80
-29 -83 0 -122 47 -122 150 0 70 18 113 58 134 39 22 104 20 134 -4z"/>
<path d="M1838 418 l-3 -53 -37 -3 c-21 -2 -38 -7 -38 -12 0 -5 17 -10 38 -12
l37 -3 5 -138 c5 -137 5 -139 33 -163 19 -17 40 -24 68 -24 51 0 53 24 1 27
-67 4 -86 53 -80 213 l3 85 53 3 c28 2 52 7 52 12 0 5 -24 10 -52 12 l-53 3
-3 53 c-2 28 -7 52 -12 52 -5 0 -10 -24 -12 -52z"/>
<path d="M2748 418 c-3 -52 -4 -53 -35 -56 -18 -2 -33 -7 -33 -12 0 -5 15 -10
33 -12 l32 -3 5 -138 c5 -137 5 -139 33 -163 34 -29 107 -35 107 -8 0 8 -5 12
-10 9 -16 -10 -79 15 -90 35 -6 10 -10 75 -10 144 l0 126 50 0 c28 0 50 5 50
10 0 6 -22 10 -50 10 l-50 0 0 55 c0 41 -4 55 -14 55 -11 0 -16 -15 -18 -52z"/>
<path d="M712 354 c-113 -58 -119 -257 -10 -324 54 -33 188 -21 212 19 15 24
-6 30 -37 11 -40 -25 -132 -27 -165 -4 -28 19 -52 65 -52 99 l0 25 135 0 135
0 0 28 c0 49 -19 98 -50 127 -37 36 -117 45 -168 19z m148 -41 c20 -18 33 -41
37 -65 l6 -38 -122 0 c-132 0 -131 -1 -110 59 25 71 132 95 189 44z"/>
<path d="M1508 355 c-34 -19 -48 -44 -48 -88 0 -45 33 -75 106 -93 33 -9 69
-22 82 -30 30 -19 30 -67 0 -88 -29 -20 -108 -21 -155 -1 -46 19 -64 5 -26
-21 19 -12 51 -20 99 -22 64 -4 73 -2 102 23 26 22 32 34 32 65 0 56 -29 81
-116 100 -67 15 -94 34 -94 68 0 33 8 45 37 61 32 16 84 14 125 -8 29 -14 38
-15 42 -5 15 39 -132 70 -186 39z"/>
<path d="M2123 357 c-36 -14 -60 -34 -50 -43 3 -4 24 1 47 10 22 9 58 16 79
16 55 0 82 -25 88 -83 l6 -47 -59 0 c-84 -1 -136 -15 -161 -45 -34 -39 -30
-80 11 -121 29 -29 41 -34 81 -34 52 0 82 12 107 44 17 21 18 21 18 -11 0 -23
5 -33 15 -33 13 0 15 21 15 133 0 146 -13 191 -60 214 -31 16 -94 15 -137 0z
m164 -183 c10 -25 -16 -91 -44 -113 -54 -43 -144 -20 -158 40 -11 46 21 71
101 79 38 4 75 8 82 9 7 0 15 -6 19 -15z"/>
<path d="M2550 359 c-14 -6 -35 -20 -47 -31 l-23 -21 0 26 c0 17 -5 27 -15 27
-13 0 -15 -26 -15 -175 0 -149 2 -175 15 -175 12 0 15 19 15 108 0 59 5 124
11 145 12 43 57 77 102 77 17 0 27 5 27 15 0 17 -32 19 -70 4z"/>
<path d="M3044 356 c-64 -28 -100 -105 -91 -194 10 -95 72 -152 164 -152 63 0
136 31 127 54 -5 12 -11 11 -37 -5 -49 -29 -137 -26 -176 7 -25 21 -51 74 -51
106 0 4 62 9 138 10 l137 3 -3 45 c-2 24 -10 57 -18 73 -31 59 -119 84 -190
53z m139 -37 c24 -18 55 -94 44 -105 -2 -3 -58 -3 -125 -2 l-120 3 14 40 c20
59 55 85 113 85 34 0 56 -6 74 -21z"/>
<path d="M52 218 c28 -79 55 -158 61 -176 8 -24 16 -32 30 -30 15 2 31 36 73
152 30 83 56 151 58 153 2 2 28 -66 57 -152 71 -205 73 -205 151 14 32 90 58
168 58 173 0 4 -6 8 -14 8 -8 0 -33 -58 -68 -157 l-55 -156 -38 109 c-21 60
-46 129 -54 154 -11 31 -23 46 -37 48 -18 3 -27 -16 -75 -152 -63 -179 -53
-181 -120 22 -33 100 -47 132 -60 132 -15 0 -10 -22 33 -142z"/>
</g>
</svg>
