<?xml version="1.0" standalone="no"?>
<!DOCTYPE svg PUBLIC "-//W3C//DTD SVG 20010904//EN"
 "http://www.w3.org/TR/2001/REC-SVG-20010904/DTD/svg10.dtd">
<svg version="1.0" xmlns="http://www.w3.org/2000/svg"
 width="5334.000000pt" height="2668.000000pt" viewBox="0 0 5334.000000 2668.000000"
 preserveAspectRatio="xMidYMid meet">

<g transform="translate(0.000000,2668.000000) scale(0.100000,-0.100000)"
fill="#000000" stroke="none">
<path d="M7117 22586 c-59 -21 -114 -64 -147 -114 -62 -94 -60 -55 -60 -1089
l0 -943 -1574 0 c-1782 0 -1634 7 -1731 -82 -32 -29 -62 -68 -76 -100 l-24
-53 -3 -1617 -2 -1618 -944 0 -943 0 -61 -31 c-73 -36 -124 -92 -152 -166 -20
-54 -20 -68 -18 -3451 l3 -3397 23 -43 c33 -63 84 -114 139 -142 l48 -25 957
-3 958 -2 2 -1633 3 -1632 22 -40 c30 -56 99 -120 158 -147 l50 -23 1582 -3
1582 -2 3 -953 3 -952 23 -50 c30 -66 103 -139 165 -165 l49 -21 2052 -10
c2006 -9 3947 -5 4416 10 226 7 237 9 286 34 60 30 118 92 148 156 21 46 21
50 24 1003 l3 958 1597 2 1597 3 40 21 c60 33 115 91 144 153 l26 56 3 1617 2
1618 953 2 952 3 53 29 c60 33 101 76 134 139 l23 42 0 3415 0 3415 -27 51
c-15 28 -48 70 -73 92 -86 76 -27 72 -1076 72 l-938 0 -3 1613 c-3 1534 -4
1614 -22 1659 -24 64 -95 141 -158 172 l-52 26 -1593 0 -1593 0 0 948 c0 1058
3 1008 -70 1100 -26 34 -58 60 -101 81 l-62 31 -3341 0 c-2786 -1 -3347 -3
-3379 -14z m6353 -1544 c0 -1098 -6 -1017 89 -1113 98 -97 -66 -89 1738 -89
l1583 0 2 -1627 3 -1628 23 -42 c35 -67 79 -110 144 -143 l61 -30 944 0 943 0
0 -3025 0 -3024 -937 -3 c-745 -3 -945 -6 -973 -17 -55 -20 -111 -62 -147
-109 -67 -88 -63 21 -63 -1749 l0 -1603 -1583 0 c-1775 0 -1635 6 -1725 -75
-26 -23 -58 -64 -72 -91 l-25 -49 -3 -966 -2 -966 -503 -6 c-649 -9 -5083 -9
-5289 0 l-158 6 0 957 0 957 -30 61 c-33 65 -76 109 -143 144 l-42 23 -1597 3
-1598 2 0 1613 c0 1838 8 1670 -89 1768 -96 95 -18 89 -1093 89 l-938 0 0
3030 0 3030 943 0 944 0 61 30 c68 35 115 82 146 149 l21 46 3 1617 2 1618
1588 2 1587 3 53 24 c69 31 143 112 165 181 15 48 17 137 17 1006 l0 954 2975
0 2975 0 0 -958z"/>
<path d="M10310 17674 c-901 -29 -1712 -203 -2540 -545 -212 -87 -649 -307
-855 -429 -1181 -703 -2127 -1716 -2733 -2925 -118 -237 -174 -367 -167 -392
3 -13 42 -100 86 -194 1021 -2171 3070 -3680 5434 -4004 693 -94 1441 -83
2120 31 1807 304 3401 1278 4501 2749 290 388 567 854 755 1269 85 188 92 138
-58 446 -352 727 -791 1345 -1353 1910 -915 919 -2056 1569 -3293 1875 -415
103 -839 169 -1242 194 -187 12 -519 19 -655 15z m610 -849 c677 -89 1288
-356 1800 -786 208 -174 437 -424 596 -649 765 -1084 841 -2519 194 -3675
-239 -427 -552 -785 -945 -1080 -179 -134 -305 -212 -520 -320 -343 -173 -660
-274 -1065 -337 -130 -20 -181 -22 -485 -22 -368 0 -471 9 -745 70 -823 184
-1545 655 -2042 1333 -120 165 -204 305 -308 516 -315 637 -422 1319 -319
2030 107 742 464 1439 1005 1965 280 272 555 464 909 636 386 187 778 295
1212 334 149 13 567 5 713 -15z"/>
<path d="M10400 15433 c-475 -28 -894 -191 -1247 -486 -594 -497 -865 -1271
-712 -2032 48 -238 169 -528 303 -728 384 -573 988 -914 1671 -944 811 -34
1577 416 1949 1147 146 287 213 551 223 880 8 278 -19 473 -103 728 -221 674
-797 1208 -1484 1375 -182 45 -436 70 -600 60z"/>
<path d="M37547 20563 c-4 -3 -7 -1261 -7 -2795 l0 -2788 505 0 505 0 0 1118
c0 647 4 1164 10 1228 30 335 181 622 416 790 311 222 809 258 1159 85 251
-125 396 -322 478 -651 21 -84 21 -102 24 -1327 l4 -1243 504 0 505 0 0 1303
c0 828 -4 1333 -10 1387 -76 624 -392 1110 -889 1364 -60 31 -146 69 -191 86
-247 91 -565 133 -845 111 -440 -36 -777 -179 -1057 -449 l-108 -105 0 947 0
946 -498 0 c-274 0 -502 -3 -505 -7z"/>
<path d="M29000 19229 c-388 -28 -752 -153 -1040 -357 -117 -82 -326 -288
-410 -402 -213 -290 -346 -630 -407 -1040 -27 -179 -24 -579 5 -768 78 -501
262 -890 571 -1205 332 -340 736 -517 1268 -557 438 -33 850 69 1176 292 100
69 231 181 297 255 l46 51 37 -72 c96 -186 249 -314 462 -385 155 -52 244 -61
598 -61 l317 0 0 460 0 460 -245 0 -245 0 0 1625 0 1625 -505 0 -505 0 -2
-200 -3 -200 -75 66 c-278 242 -615 382 -997 414 -131 11 -189 11 -343 -1z
m488 -935 c495 -73 809 -398 910 -939 26 -143 23 -457 -6 -602 -116 -579 -476
-901 -1042 -930 -346 -18 -658 92 -871 306 -164 165 -268 370 -321 633 -29
147 -32 441 -5 585 98 529 432 872 922 947 123 19 286 19 413 0z"/>
<path d="M44425 19233 c-646 -40 -1152 -298 -1500 -764 -351 -471 -500 -1147
-400 -1819 117 -782 566 -1377 1226 -1623 429 -160 954 -176 1368 -41 254 83
481 226 681 428 41 42 78 76 82 76 3 0 10 -10 13 -22 12 -37 73 -134 119 -188
131 -153 335 -255 581 -289 42 -6 218 -11 391 -11 l314 0 0 460 0 460 -250 0
-250 0 0 1625 0 1625 -505 0 -505 0 0 -200 0 -200 -82 71 c-348 300 -792 443
-1283 412z m405 -933 c524 -65 863 -417 946 -982 23 -155 15 -451 -15 -591
-120 -562 -486 -879 -1041 -904 -496 -22 -887 201 -1085 620 -88 185 -128 379
-127 622 0 289 59 527 184 735 222 370 652 559 1138 500z"/>
<path d="M34395 19224 c-239 -19 -442 -57 -630 -119 -767 -252 -1242 -892
-1326 -1789 -16 -174 -6 -501 20 -674 143 -935 734 -1547 1643 -1701 262 -45
588 -50 858 -15 628 82 1120 373 1433 849 124 188 238 467 286 702 27 131 27
143 -1 143 -13 0 -207 7 -433 15 -225 8 -447 15 -491 15 l-82 0 -27 -82 c-58
-176 -132 -303 -247 -423 -90 -96 -169 -152 -290 -210 -354 -168 -818 -147
-1150 51 -98 59 -246 201 -307 294 -133 205 -197 427 -208 715 -10 286 32 509
136 720 163 328 437 524 812 579 315 47 644 -25 874 -189 172 -123 324 -344
389 -568 l17 -57 77 0 c42 0 262 7 487 15 226 8 422 15 438 15 34 0 34 8 6
143 -31 150 -101 355 -169 493 -293 598 -828 963 -1555 1059 -116 15 -457 27
-560 19z"/>
<path d="M22479 19098 c10 -29 269 -777 576 -1663 376 -1088 574 -1647 610
-1723 140 -292 319 -454 570 -514 50 -12 92 -23 94 -24 2 -2 -25 -85 -60 -184
l-64 -180 -707 0 -708 0 0 -460 0 -460 794 0 c859 0 890 2 1032 55 83 31 188
101 243 160 64 70 136 188 186 306 24 58 422 1140 884 2405 462 1264 842 2307
846 2317 7 16 -22 17 -524 17 -292 0 -531 -1 -531 -2 0 -2 -247 -707 -549
-1568 -352 -1006 -553 -1566 -562 -1568 -10 -2 -158 418 -550 1565 l-536 1568
-531 3 -531 2 18 -52z"/>
<path d="M47642 19133 c20 -75 1149 -3317 1179 -3385 97 -220 223 -376 377
-468 71 -41 189 -84 265 -95 l46 -7 -51 -142 c-27 -77 -57 -160 -65 -183 l-15
-43 -709 0 -709 0 0 -460 0 -461 833 3 c825 3 833 4 912 26 122 34 217 85 295
159 102 96 177 221 255 422 47 123 1695 4638 1695 4645 0 3 -238 6 -528 6
l-528 0 -550 -1570 c-394 -1127 -553 -1570 -563 -1568 -8 2 -212 585 -550
1570 l-536 1568 -529 0 c-498 0 -528 -1 -524 -17z"/>
<path d="M25788 11265 l-3 -934 -85 75 c-405 359 -944 505 -1540 418 -645 -94
-1160 -464 -1448 -1040 -259 -519 -322 -1237 -161 -1861 174 -680 624 -1179
1245 -1382 342 -112 741 -138 1089 -71 293 57 573 197 808 405 l97 86 0 -221
0 -220 515 0 515 0 0 2840 0 2840 -515 0 -515 0 -2 -935z m-903 -1380 c460
-81 778 -423 882 -950 27 -139 25 -464 -5 -602 -99 -458 -363 -774 -751 -902
-236 -77 -559 -70 -800 18 -330 121 -559 392 -655 776 -39 157 -49 259 -44
469 4 161 9 210 32 311 106 465 377 761 791 865 163 41 368 46 550 15z"/>
<path d="M33855 11136 l-870 -732 0 -289 0 -290 362 -3 362 -2 4 -1243 c3
-1122 5 -1250 21 -1327 77 -386 260 -596 596 -684 159 -42 233 -46 857 -46
l593 0 0 470 0 470 -520 0 -520 0 0 1180 0 1180 588 2 587 3 3 468 2 467 -590
0 -590 0 0 555 c0 305 -3 555 -7 554 -5 0 -399 -330 -878 -733z"/>
<path d="M29595 10843 c-27 -2 -102 -10 -165 -19 -695 -93 -1237 -487 -1532
-1110 -149 -317 -222 -669 -221 -1074 0 -409 63 -728 211 -1058 157 -352 420
-659 728 -850 422 -262 995 -361 1511 -261 349 67 693 256 929 512 32 34 59
57 61 51 14 -43 106 -177 160 -235 117 -124 264 -204 462 -251 76 -18 127 -21
449 -25 l362 -5 0 471 0 471 -250 0 -250 0 0 1650 0 1650 -510 0 -510 0 -2
-204 -3 -205 -80 70 c-359 314 -820 458 -1350 422z m530 -959 c341 -63 597
-250 749 -549 206 -403 204 -993 -6 -1397 -155 -298 -415 -484 -761 -544 -120
-20 -353 -20 -472 1 -474 84 -798 415 -905 923 -27 127 -37 372 -21 512 81
688 549 1102 1216 1074 66 -3 156 -12 200 -20z"/>
<path d="M38400 10839 c-260 -21 -534 -93 -751 -197 -521 -250 -894 -724
-1048 -1333 -57 -225 -73 -350 -78 -609 -8 -348 29 -606 126 -900 252 -758
828 -1242 1601 -1344 438 -58 827 -3 1161 164 180 90 286 168 446 324 57 55
104 98 105 95 2 -2 16 -30 32 -62 121 -243 369 -401 699 -446 43 -6 220 -11
393 -11 l314 0 -2 468 -3 467 -247 3 -248 2 0 1650 0 1650 -515 0 -515 0 0
-206 0 -206 -57 53 c-367 336 -848 485 -1413 438z m456 -940 c508 -51 844
-346 968 -851 38 -153 50 -289 43 -478 -14 -374 -120 -655 -328 -875 -202
-213 -471 -316 -824 -316 -527 0 -917 267 -1088 746 -64 181 -95 435 -78 640
37 436 205 756 502 954 173 117 398 182 650 190 25 0 95 -4 155 -10z"/>
</g>
</svg>
